<svg height="50" viewBox="62.521 134.315 424.358 160" xmlns="http://www.w3.org/2000/svg"><path d="M155.171 226.205l-17.345 17.23h-13.833c7.779-7.653 19.372-19.173 34.782-34.56.208-.133.45-.407.725-.82.758 2.327 1.93 5.78 3.513 10.36l-7.842 7.79zm8.768-5.43c1.719 5.06 4.266 12.613 7.641 22.66h-10.943c-1.034-3.28-2.58-8.203-4.641-14.77l7.943-7.89zm-25.6 5.13c-3.369 3.347-8.393 8.37-15.07 15.07a36813.765 36813.765 0 0118.07-56.4h10.631c1.583 4.653 3.889 11.627 6.916 20.92-1.725 1.707-4.306 4.27-7.742 7.69-1.034-3.213-2.55-8.067-4.55-14.56-1.852 6.087-4.604 15.18-8.255 27.28zm82.892 18.15c-6.538-6.7-16.343-16.783-29.416-30.25v-13.33c6.536 6.767 16.342 16.85 29.416 30.25v13.33zm-18.061-35.28v-14.66h-14.768v49.42h-9.594v-58.85h33.856v33.94c-2.135-2.193-5.3-5.477-9.494-9.85zm24.353 26.35v-50.55h39.543v18.05l-9.806 9.74v-18.05h-19.821v37.74a2223.42 2223.42 0 00-9.916 9.94v-6.87zm1.862 8.31c8.328-8.34 20.889-20.85 37.681-37.53v13.84c-5.303 5.267-13.253 13.163-23.849 23.69h-13.832zm75.978-17.23l-17.346 17.23h-13.832c7.778-7.653 19.372-19.173 34.782-34.56.207-.133.449-.407.724-.82.758 2.327 1.929 5.78 3.514 10.36l-7.842 7.79zm8.768-5.43c1.717 5.06 4.264 12.613 7.641 22.66h-10.943c-1.034-3.28-2.581-8.203-4.641-14.77l7.943-7.89zm-25.6 5.13c-3.37 3.347-8.393 8.37-15.071 15.07a37069.298 37069.298 0 0118.071-56.4h10.63c1.584 4.653 3.889 11.627 6.916 20.92-1.725 1.707-4.305 4.27-7.741 7.69-1.034-3.213-2.551-8.067-4.551-14.56-1.852 6.087-4.604 15.18-8.254 27.28zm84.642-41.12h-45.624v9.74h17.96v48.91h9.704v-48.91h17.96v-9.74zm36.549 41.42l-17.345 17.23h-13.832c7.777-7.653 19.372-19.173 34.781-34.56.207-.133.449-.407.725-.82.758 2.327 1.929 5.78 3.513 10.36l-7.842 7.79zm8.768-5.43c1.718 5.06 4.265 12.613 7.641 22.66h-10.942c-1.034-3.28-2.582-8.203-4.641-14.77l7.942-7.89zm-25.6 5.13c-3.369 3.347-8.393 8.37-15.07 15.07a35712.013 35712.013 0 0118.07-56.4h10.631c1.583 4.653 3.889 11.627 6.916 20.92-1.726 1.707-4.306 4.27-7.742 7.69-1.034-3.213-2.551-8.067-4.55-14.56-1.852 6.087-4.605 15.18-8.255 27.28z" style="line-height:171.719px;white-space:pre" fill="#069"/><path d="M109.936 267l112-1m-117.616 7.647l-1-98" stroke-width="13" stroke="#f2af00"/><path d="M438.923 161.082l-212 1m217.616-7.647l1 98" stroke-width="13" stroke="#c32900"/></svg>